<svg t="1681367445176" class="icon" viewBox="0 0 1024 1024" version="1.1" xmlns="http://www.w3.org/2000/svg" p-id="3046" width="200" height="200"><path d="M32 96l960 0 0 64-960 0 0-64z" fill="#e6e6e6" p-id="3047"></path><path d="M32 864l960 0 0 64-960 0 0-64z" fill="#e6e6e6" p-id="3048"></path><path d="M128 192l64 0 0 64-64 0 0-64z" fill="#e6e6e6" p-id="3049"></path><path d="M224 192l64 0 0 64-64 0 0-64z" fill="#e6e6e6" p-id="3050"></path><path d="M320 192l64 0 0 64-64 0 0-64z" fill="#e6e6e6" p-id="3051"></path><path d="M384 768l-256 0 0-320 256 0 0 320zM192 704l128 0 0-192-128 0 0 192z" fill="#e6e6e6" p-id="3052"></path><path d="M448 448l224 0 0 64-224 0 0-64z" fill="#e6e6e6" p-id="3053"></path><path d="M1024 352l-1024 0 0-256 1024 0 0 256zM64 288l896 0 0-128-896 0 0 128z" fill="#e6e6e6" p-id="3054"></path><path d="M1024 928l-1024 0 0-479.84 64 0 0 415.84 896 0 0-447.264 64 0z" fill="#e6e6e6" p-id="3055"></path><path d="M448 576l448 0 0 64-448 0 0-64z" fill="#e6e6e6" p-id="3056"></path><path d="M448 704l448 0 0 64-448 0 0-64z" fill="#e6e6e6" p-id="3057"></path></svg>