<?xml version="1.0" standalone="no"?><!DOCTYPE svg PUBLIC "-//W3C//DTD SVG 1.1//EN" "http://www.w3.org/Graphics/SVG/1.1/DTD/svg11.dtd"><svg t="1666927395914" class="icon" viewBox="0 0 1024 1024" version="1.1" xmlns="http://www.w3.org/2000/svg" p-id="2069" xmlns:xlink="http://www.w3.org/1999/xlink" width="200" height="200"><path d="M874.496 241.92a16 16 0 0 1 0 22.656L468.48 686.656a16.128 16.128 0 0 1-1.6 1.856l-45.248 45.248a16 16 0 0 1-5.504 3.584 16 16 0 0 1-17.536-3.392l-45.248-45.312a16 16 0 0 1-2.304-2.88L140.672 475.456a16 16 0 0 1 0-22.592l45.248-45.248a16 16 0 0 1 22.656 0l201.6 201.6 396.48-412.544a16 16 0 0 1 22.592 0l45.248 45.248z" p-id="2070" fill="#1afa29"></path></svg>