<?xml version="1.0" standalone="no"?><!DOCTYPE svg PUBLIC "-//W3C//DTD SVG 1.1//EN" "http://www.w3.org/Graphics/SVG/1.1/DTD/svg11.dtd"><svg t="1666927537032" class="icon" viewBox="0 0 1024 1024" version="1.1" xmlns="http://www.w3.org/2000/svg" p-id="2364" xmlns:xlink="http://www.w3.org/1999/xlink" width="200" height="200"><path d="M729.408 842.688l52.992 80A487.872 487.872 0 0 1 512 1003.968a487.872 487.872 0 0 1-268.032-79.68l-2.368-1.6 53.056-80c63.936 42.368 138.88 65.28 217.344 65.28a391.872 391.872 0 0 0 217.408-65.28zM238.208 107.52l53.76 79.552a393.472 393.472 0 0 0-173.952 322.88v3.968h-96a489.472 489.472 0 0 1 216.192-406.4z m129.28 373.44l96.512 166.976-96.512 167.04H174.528l-96.512-167.04 96.512-167.04h192.96z m481.984 0l96.512 166.976-96.512 167.04h-192.96l-96.512-167.04 96.512-167.04h192.96z m-536 96H228.48l-42.496 70.976 42.496 71.04h84.992l42.56-71.04-42.56-71.04z m482.048 0h-84.992l-42.496 70.976 42.496 71.04h84.992l42.496-71.04-42.496-71.04z m-9.92-469.568a489.472 489.472 0 0 1 216.32 401.6l0.064 4.928h-96a393.472 393.472 0 0 0-170.88-324.736l-3.2-2.176 53.696-79.616zM608.512 56l96.512 167.04-96.512 166.976H415.488l-96.512-167.04L415.488 56h193.024z m-54.016 96H469.504l-42.496 71.04 42.496 70.976h84.992l42.496-71.04-42.496-70.976z" p-id="2365"></path></svg>