<?xml version="1.0" standalone="no"?><!DOCTYPE svg PUBLIC "-//W3C//DTD SVG 1.1//EN" "http://www.w3.org/Graphics/SVG/1.1/DTD/svg11.dtd"><svg t="1668067140590" class="icon" viewBox="0 0 1024 1024" version="1.1" xmlns="http://www.w3.org/2000/svg" p-id="13532" xmlns:xlink="http://www.w3.org/1999/xlink" width="200" height="200"><path d="M874.0352 149.9648c-96.7168-96.7168-225.28-149.9648-362.0352-149.9648s-265.3184 53.248-362.0352 149.9648c-96.7168 96.7168-149.9648 225.28-149.9648 362.0352s53.248 265.3184 149.9648 362.0352c96.7168 96.7168 225.28 149.9648 362.0352 149.9648s265.3184-53.248 362.0352-149.9648c96.7168-96.7168 149.9648-225.28 149.9648-362.0352s-53.248-265.3184-149.9648-362.0352zM941.9264 346.1632c-9.984-17.9712-35.072-26.5216-67.84-37.6832-35.1744-11.9808-47.616-48.128-62.0032-90.0096-12.4928-36.352-25.3952-73.8816-56.064-97.2288 83.9168 52.5824 149.7088 131.4304 185.9072 224.9216zM798.2592 521.7792c3.8912 34.6624 7.8848 70.5536-35.1744 118.8864-11.6224 13.056-18.432 31.232-25.6512 50.4832-16.6912 44.5952-32.4608 86.7328-99.6352 87.3472-1.8944-2.2528-7.2192-10.752-11.9808-37.5296-4.352-24.6784-6.8608-56.6272-9.5744-90.368-4.096-51.8144-8.7552-110.592-21.5552-159.3344-16.384-62.3104-43.8784-99.1232-84.0192-112.5376-17.5104-5.8368-35.4304-8.704-54.6816-8.704-14.2336 0-27.136 1.536-38.5024 2.8672-8.8576 1.024-17.2544 2.048-24.32 2.048 0 0 0 0 0 0-11.9808 0-25.5488 0-42.2912-38.2976-24.0128-55.04-6.2976-143.2576 64.2048-189.7984 38.656-25.4976 65.3312-36.4032 89.1904-36.4032 19.0464 0 39.5776 6.6048 68.7104 22.1696 34.4064 18.3296 61.3888 20.6848 81.0496 20.6848 7.7824 0 14.848-0.4096 21.6576-0.8192 5.7344-0.3584 11.1104-0.6656 16.128-0.6656 11.264 0 20.3776 1.4848 31.0784 8.7552 19.712 13.4656 29.952 43.2128 40.7552 74.6496 16.384 47.7184 34.9696 101.7856 93.952 121.856 7.936 2.7136 21.5552 7.3216 31.232 11.3664-8.3456 8.6016-22.272 21.0432-35.9424 33.2288-8.8064 7.8848-18.7904 16.7936-29.8496 26.88-31.9488 29.1328-28.16 63.232-24.7808 93.2864zM51.2512 508.0576c5.5296 0.9728 11.4688 2.1504 17.6128 3.4304 28.7744 6.144 42.24 11.6736 48.128 14.7968-2.7136 5.2736-8.192 13.056-11.8272 18.176-12.6464 17.9712-28.416 40.3456-22.4256 64.9728 4.0448 16.64 0.6144 37.0176-5.2736 55.8592-16.9984-48.0256-26.2656-99.6352-26.2656-153.3952 0-1.3312 0.0512-2.6112 0.0512-3.9424zM512 972.8c-175.36 0-328.192-98.5088-406.016-243.0464 13.4144-25.5488 38.2976-82.0736 26.6752-131.5328 0.8192-4.9664 9.2672-16.9472 14.336-24.1664 13.8752-19.712 31.1296-44.1856 18.3296-70.144-8.96-18.2272-32.9728-30.5152-80.1792-41.1648-10.9568-2.4576-21.6064-4.4544-30.6688-6.0416 27.4432-228.096 222.1056-405.4528 457.472-405.4528 80.7936 0 156.7744 20.9408 222.8224 57.6-16.3328-7.1168-31.1296-8.2432-43.008-8.2432-6.5024 0-12.9536 0.3584-19.2 0.768-6.0928 0.3584-12.3904 0.7168-18.6368 0.7168-14.5408 0-32.6656-1.7408-56.9344-14.6944-37.0688-19.712-64.8192-28.16-92.7744-28.16-34.6112 0-69.7344 13.4144-117.4016 44.8512-41.216 27.1872-72.2432 68.7616-87.3984 117.1456-14.7968 47.1552-13.2096 95.4368 4.4544 135.8848 20.8384 47.7184 48.3328 69.0176 89.1904 69.0176 0 0 0 0 0 0 10.0864 0 19.9168-1.1776 30.3104-2.4064 10.496-1.2288 21.2992-2.5088 32.512-2.5088 13.8752 0 26.112 1.9456 38.4512 6.0416 22.4768 7.5264 39.0656 32.7168 50.7392 77.0048s16.0768 100.6592 20.0192 150.3232c3.2768 41.472 6.3488 80.5888 13.1584 110.1312 4.1472 17.92 9.472 31.5392 16.384 41.6256 10.2912 15.0528 25.0368 23.3472 41.5232 23.3472 45.2608 0 81.408-14.592 107.4688-43.3664 21.6576-23.9104 32.7168-53.4528 41.6256-77.2096 5.2224-13.9776 10.6496-28.4672 15.9232-34.4064 58.2144-65.3824 52.224-119.2448 47.8208-158.6176-3.2256-28.8768-3.2768-39.1168 8.3968-49.7664 10.8544-9.8816 20.736-18.7392 29.44-26.5216 18.5856-16.5888 32-28.5696 41.4208-38.8096 6.4512-7.0656 21.6064-23.6032 17.408-44.288-0.0512-0.2048-0.1024-0.3584-0.1024-0.5632 17.5616 48.6912 27.136 101.1712 27.136 155.8528 0 254.1056-206.6944 460.8-460.8 460.8z" p-id="13533" fill="#e6e6e6"></path></svg>