<?xml version="1.0" standalone="no"?><!DOCTYPE svg PUBLIC "-//W3C//DTD SVG 1.1//EN" "http://www.w3.org/Graphics/SVG/1.1/DTD/svg11.dtd"><svg t="1668066909136" class="icon" viewBox="0 0 1024 1024" version="1.1" xmlns="http://www.w3.org/2000/svg" p-id="7724" xmlns:xlink="http://www.w3.org/1999/xlink" width="200" height="200"><path d="M511.877565 170.139826c49.129739 0.222609 88.954435-37.843478 88.954435-85.081043C600.832 38.088348 561.007304 0 511.877565 0S422.92313 38.066087 422.92313 85.058783c0 46.970435 39.824696 85.081043 88.954435 85.081043zM601.07687 189.284174H422.678261C355.383652 189.284174 311.529739 245.849043 311.529739 299.675826V558.747826c0 50.176 73.928348 50.176 73.928348 0V319.287652h14.313739v651.353044c0 69.320348 100.173913 67.049739 102.555826 0V595.233391h19.099826v375.629913c4.051478 71.145739 102.555826 64.311652 102.555826-0.222608v-651.353044h11.909566V558.747826c0 50.176 76.332522 50.176 76.332521 0V299.675826c0-53.604174-44.121043-110.391652-111.148521-110.391652z" p-id="7725" fill="#e6e6e6"></path></svg>