<?xml version="1.0" standalone="no"?><!DOCTYPE svg PUBLIC "-//W3C//DTD SVG 1.1//EN" "http://www.w3.org/Graphics/SVG/1.1/DTD/svg11.dtd"><svg t="1668668646989" class="icon" viewBox="0 0 1024 1024" version="1.1" xmlns="http://www.w3.org/2000/svg" p-id="2721" xmlns:xlink="http://www.w3.org/1999/xlink" width="200" height="200"><path d="M560 736a16 16 0 0 1-16-16v-160a16 16 0 0 1 27.328-11.328l112 112A15.968 15.968 0 0 1 672 688h-57.376l-43.328 43.328A16 16 0 0 1 560 736z m16-137.376v82.752l20.672-20.672A16 16 0 0 1 608 656h25.376L576 598.624z" fill="#e6e6e6" p-id="2722"></path><path d="M832 832v31.392c-329.376-5.92-426.656-57.984-448.864-114.08-24.224-61.248 6.816-163.936 123.744-273.568 115.136-106.272 131.072-176.768 119.392-206.592C578.56 147.168 317.856 130.016 192 128.032V96H96v96h96v-31.104c150.688 4.192 367.744 26.112 404.448 119.904 14.56 37.248-53.312 117.888-111.36 171.52-129.344 121.28-161.664 233.024-131.712 308.768 37.44 94.656 194.368 130.016 478.656 134.4V928h96v-96H832z" fill="#e6e6e6" p-id="2723"></path><path d="M816 96A48 48 0 0 0 768 144c0 7.392 1.824 14.304 4.8 20.576L521.376 416H448v73.376l-283.424 283.392A48.224 48.224 0 0 0 144 768 48 48 0 1 0 192 816c0-7.392-1.824-14.304-4.8-20.608L470.624 512H544v-73.376l251.424-251.424c6.272 2.976 13.184 4.8 20.576 4.8a48 48 0 1 0 0-96z" fill="#e6e6e6" p-id="2724"></path></svg>