<?xml version="1.0" standalone="no"?><!DOCTYPE svg PUBLIC "-//W3C//DTD SVG 1.1//EN" "http://www.w3.org/Graphics/SVG/1.1/DTD/svg11.dtd"><svg t="1668066833134" class="icon" viewBox="0 0 1024 1024" version="1.1" xmlns="http://www.w3.org/2000/svg" p-id="6449" xmlns:xlink="http://www.w3.org/1999/xlink" width="200" height="200"><path d="M512 120c275.52 0 489.92 360 498.88 375.68a32 32 0 0 1 0 32c-8.96 16.32-223.36 376.32-498.88 376.32S22.08 544 13.12 528.32a32 32 0 0 1 0-32C22.08 480 236.48 120 512 120z m0 64c-208.32 0-389.44 259.84-433.6 328 44.16 68.16 224 328 433.6 328 209.6 0 389.44-259.84 433.6-328-44.16-68.16-225.28-328-433.6-328zM512 314.24a197.76 197.76 0 1 1 0 395.52 197.76 197.76 0 0 1 0-395.52z m0 64a133.76 133.76 0 1 0 0 267.52 133.76 133.76 0 0 0 0-267.52z" p-id="6450" fill="#e6e6e6"></path></svg>